<svg xmlns="http://www.w3.org/2000/svg" xmlns:xlink="http://www.w3.org/1999/xlink" width="2700" zoomAndPan="magnify" viewBox="0 0 2025 262.499992" height="350" preserveAspectRatio="xMidYMid meet" version="1.0"><defs><g/><clipPath id="id1"><path d="M 556 0 L 1722 0 L 1722 262 L 556 262 Z M 556 0 " clip-rule="nonzero"/></clipPath></defs><g clip-path="url(#id1)"><path stroke-linecap="butt" transform="matrix(1.859067, 0, 0, 1.859067, 581.445029, 8.30205)" fill="none" stroke-linejoin="miter" d="M 14.397495 19.078108 C 14.397495 18.111561 14.611816 17.369842 15.040459 16.855051 C 15.492214 16.317146 16.116267 16.048194 16.910516 16.048194 L 41.986098 16.048194 C 43.576698 16.048194 44.370947 16.972717 44.370947 18.819662 L 44.370947 90.503804 C 44.370947 91.211905 44.480209 91.695178 44.69453 91.953624 C 44.908851 92.212071 45.326988 92.340243 45.951041 92.340243 L 85.692918 92.340243 C 87.71216 92.340243 88.722832 93.178617 88.722832 94.855365 L 88.722832 111.099653 C 88.722832 111.980051 88.432868 112.690252 87.85294 113.226055 C 87.294023 113.742948 86.487167 113.999293 85.434472 113.999293 L 17.973718 113.999293 C 16.641564 113.999293 15.706535 113.742948 15.170732 113.226055 C 14.65384 112.690252 14.397495 111.851878 14.397495 110.713034 Z M 98.089929 113.999293 C 97.381829 113.999293 96.7998 113.76396 96.350145 113.291192 C 95.919402 112.797413 95.705081 112.108223 95.705081 111.227825 C 95.705081 110.605874 95.843759 109.895672 96.123217 109.101423 L 128.065483 19.078108 C 128.494125 17.939264 128.9795 17.15552 129.515303 16.724777 C 130.053207 16.275123 130.891581 16.048194 132.030425 16.048194 L 158.041036 16.048194 C 159.093731 16.048194 160.039266 16.382283 160.87764 17.04836 C 161.716015 17.693425 162.348472 18.540204 162.779216 19.595 L 194.463035 109.519559 C 194.633232 110.229761 194.71938 110.755058 194.71938 111.099653 C 194.71938 111.893902 194.547083 112.580991 194.204589 113.16302 C 193.859994 113.719835 193.334697 113.999293 192.624496 113.999293 L 166.742057 113.999293 C 165.239707 113.999293 164.27106 113.247067 163.842417 111.744718 L 158.686101 96.563632 C 158.427655 95.960591 158.179715 95.55296 157.944381 95.338639 C 157.727959 95.101205 157.320329 94.983538 156.719389 94.983538 L 128.710548 94.983538 C 127.657852 94.983538 127.002281 95.466811 126.743835 96.433358 L 121.329073 112.034682 C 120.791169 113.343722 119.738473 113.999293 118.170987 113.999293 Z M 150.111151 72.551251 C 151.077698 72.551251 151.563072 72.110001 151.563072 71.229603 C 151.563072 71.057306 151.476924 70.616056 151.304626 69.907956 L 143.374741 47.345395 C 143.202444 46.89364 142.935593 46.668812 142.569986 46.668812 C 142.225391 46.668812 141.966945 46.89364 141.796749 47.345395 L 133.738691 69.777682 C 133.566394 70.122277 133.480245 70.563527 133.480245 71.09933 C 133.480245 72.065876 134.007643 72.551251 135.060339 72.551251 Z M 288.209656 75.322718 C 288.209656 89.762085 284.557791 100.0432 277.251959 106.168164 C 269.946127 112.270015 259.513726 115.32094 245.954758 115.32094 C 230.721142 115.32094 219.868504 111.807753 213.401046 104.781379 C 206.933588 97.733994 203.69986 87.032641 203.69986 72.679423 L 203.69986 19.078108 C 203.69986 18.111561 203.914181 17.369842 204.344924 16.855051 C 204.794579 16.317146 205.418632 16.048194 206.212881 16.048194 L 231.290564 16.048194 C 232.879063 16.048194 233.675413 16.972717 233.675413 18.819662 L 233.675413 75.837509 C 233.675413 82.349092 234.921418 87.06626 237.413427 89.986912 C 239.92855 92.888653 243.527885 94.338473 248.211434 94.338473 C 252.787822 94.338473 256.483813 92.888653 259.299405 89.986912 C 262.112896 87.06626 263.520693 82.218819 263.520693 75.450891 L 263.520693 19.078108 C 263.520693 17.058866 264.359067 16.048194 266.035815 16.048194 L 285.824807 16.048194 C 287.415407 16.048194 288.209656 16.972717 288.209656 18.819662 Z M 385.63966 16.048194 C 386.950802 16.048194 387.606372 16.789914 387.606372 18.273353 L 387.606372 111.614444 C 387.606372 112.324646 387.314307 112.904574 386.734379 113.356329 C 386.175463 113.784972 385.456857 113.999293 384.576459 113.999293 L 366.493632 113.999293 C 365.699382 113.999293 365.054317 113.87112 364.560538 113.612674 C 364.087771 113.333216 363.539361 112.807919 362.915308 112.034682 L 326.623582 62.784927 C 326.257975 62.333172 325.946999 62.150368 325.688553 62.236517 C 325.430107 62.322666 325.301935 62.591618 325.301935 63.041272 L 325.301935 111.099653 C 325.388083 112.152348 325.184268 112.904574 324.690489 113.356329 C 324.217721 113.784972 323.358335 113.999293 322.110229 113.999293 L 304.157676 113.999293 C 301.966136 113.999293 300.871417 113.118895 300.871417 111.355998 L 300.871417 19.078108 C 300.871417 17.058866 301.837964 16.048194 303.771057 16.048194 L 325.301935 16.048194 C 326.440779 16.048194 327.289659 16.19948 327.848575 16.49995 C 328.428503 16.80042 329.073568 17.445484 329.781668 18.433043 L 361.465488 62.526481 C 362.003392 63.299718 362.486665 63.686337 362.915308 63.686337 C 363.367063 63.686337 363.593992 63.116915 363.593992 61.978071 L 363.593992 18.819662 C 363.593992 16.972717 364.560538 16.048194 366.493632 16.048194 Z M 445.298702 14.726547 C 452.604534 14.726547 459.200164 16.027182 465.087694 18.626352 C 470.998337 21.206612 475.843677 24.782834 479.623715 29.359223 C 483.405854 33.937712 485.866346 39.180177 487.00519 45.088719 C 487.284648 46.141414 487.425427 46.979788 487.425427 47.603841 C 487.425427 48.39809 487.263636 48.925489 486.942154 49.181834 C 486.639583 49.44028 486.093274 49.612577 485.296924 49.698726 L 462.188054 51.148546 C 461.305555 51.148546 460.736133 50.99726 460.479788 50.696791 C 460.221341 50.396321 459.952389 49.709232 459.672931 48.635525 C 458.899694 44.422642 457.449874 41.11327 455.32137 38.70741 C 453.215979 36.278436 450.144042 35.06605 446.103457 35.06605 C 440.903016 35.06605 436.896049 37.354244 434.082558 41.930633 C 431.266966 46.507021 429.859169 53.941025 429.859169 64.234747 C 429.859169 74.870963 431.149299 82.435241 433.727457 86.925481 C 436.326627 91.41572 440.39873 93.66189 445.943766 93.66189 C 450.627315 93.66189 454.61327 92.481023 457.90163 90.117186 C 461.2089 87.732337 463.959356 83.767394 466.152996 78.222358 C 466.409341 77.428109 467.161567 77.030984 468.407571 77.030984 C 469.010612 77.030984 469.493886 77.073008 469.859493 77.159157 L 486.360125 80.479035 C 487.671266 80.909778 488.326837 81.918349 488.326837 83.508948 C 488.326837 85.979946 486.81188 89.793603 483.781967 94.95202 C 480.752053 100.087325 476.003367 104.770873 469.53591 109.004768 C 463.068452 113.21555 454.903234 115.32094 445.040255 115.32094 C 435.715181 115.32094 427.528952 113.097883 420.479464 108.649667 C 413.432079 104.201451 407.996304 98.089094 404.17004 90.310495 C 400.345877 82.510884 398.433796 73.635464 398.433796 63.686337 C 398.433796 53.844371 400.345877 45.229498 404.17004 37.837518 C 407.996304 30.445537 413.453091 24.751316 420.544601 20.754856 C 427.636112 16.735283 435.887479 14.726547 445.298702 14.726547 Z M 530.699402 74.774308 C 530.098462 74.774308 529.594177 74.978123 529.186546 75.385754 C 528.797827 75.774474 528.604517 76.234634 528.604517 76.772538 L 528.604517 110.164624 C 528.604517 111.582926 528.251518 112.580991 527.541316 113.16302 C 526.833215 113.719835 525.736395 113.999293 524.255057 113.999293 L 502.207288 113.999293 C 500.875134 113.999293 499.940105 113.742948 499.404302 113.226055 C 498.88741 112.690252 498.631065 111.851878 498.631065 110.713034 L 498.631065 19.078108 C 498.631065 18.111561 498.845386 17.369842 499.274029 16.855051 C 499.725784 16.317146 500.349837 16.048194 501.144086 16.048194 L 526.219668 16.048194 C 526.92987 16.048194 527.499292 16.296134 527.927935 16.789914 C 528.37969 17.262681 528.604517 17.939264 528.604517 18.819662 L 528.604517 49.44028 C 528.604517 51.203177 529.400868 52.083575 530.991467 52.083575 L 553.165308 52.083575 C 554.734896 52.083575 555.518639 51.203177 555.518639 49.44028 L 555.518639 18.819662 C 555.518639 17.939264 555.73296 17.262681 556.163704 16.789914 C 556.615459 16.296134 557.195387 16.048194 557.903488 16.048194 L 582.97907 16.048194 C 583.77542 16.048194 584.386866 16.317146 584.81761 16.855051 C 585.267264 17.369842 585.494193 18.111561 585.494193 19.078108 L 585.494193 110.713034 C 585.494193 111.851878 585.22524 112.690252 584.687336 113.226055 C 584.172545 113.742948 583.258528 113.999293 581.947387 113.999293 L 559.901718 113.999293 C 558.397267 113.999293 557.292042 113.719835 556.58184 113.16302 C 555.87374 112.580991 555.518639 111.582926 555.518639 110.164624 L 555.518639 76.772538 C 555.518639 76.234634 555.32533 75.774474 554.938711 75.385754 C 554.552093 74.978123 554.045706 74.774308 553.423754 74.774308 Z M 530.699402 74.774308 " stroke="#ffdf2b" stroke-width="4.9509" stroke-opacity="1" stroke-miterlimit="4"/></g><g fill="#ffdf2b" fill-opacity="1"><g transform="translate(50.023067, 224.17329)"><g><path d="M 177.84375 -190.15625 C 180.40625 -190.15625 181.6875 -188.703125 181.6875 -185.796875 L 181.6875 -4.609375 C 181.6875 -3.242188 181.128906 -2.132812 180.015625 -1.28125 C 178.910156 -0.425781 177.503906 0 175.796875 0 L 140.6875 0 C 139.15625 0 137.914062 -0.253906 136.96875 -0.765625 C 136.03125 -1.273438 134.960938 -2.300781 133.765625 -3.84375 L 63.296875 -99.4375 C 62.609375 -100.289062 62.007812 -100.628906 61.5 -100.453125 C 60.988281 -100.285156 60.734375 -99.773438 60.734375 -98.921875 L 60.734375 -5.640625 C 60.898438 -3.585938 60.515625 -2.132812 59.578125 -1.28125 C 58.640625 -0.425781 56.972656 0 54.578125 0 L 19.734375 0 C 15.460938 0 13.328125 -1.707031 13.328125 -5.125 L 13.328125 -184.25 C 13.328125 -188.1875 15.207031 -190.15625 18.96875 -190.15625 L 60.734375 -190.15625 C 62.953125 -190.15625 64.613281 -189.851562 65.71875 -189.25 C 66.832031 -188.65625 68.078125 -187.414062 69.453125 -185.53125 L 130.953125 -99.9375 C 131.972656 -98.40625 132.910156 -97.640625 133.765625 -97.640625 C 134.617188 -97.640625 135.046875 -98.75 135.046875 -100.96875 L 135.046875 -184.765625 C 135.046875 -188.359375 136.925781 -190.15625 140.6875 -190.15625 Z M 177.84375 -190.15625 "/></g></g></g><g fill="#ffdf2b" fill-opacity="1"><g transform="translate(245.033709, 224.17329)"><g><path d="M 13.328125 -184.25 C 13.328125 -186.132812 13.753906 -187.585938 14.609375 -188.609375 C 15.460938 -189.640625 16.65625 -190.15625 18.1875 -190.15625 L 154.78125 -190.15625 C 157.851562 -190.15625 159.390625 -188.359375 159.390625 -184.765625 L 159.140625 -155.046875 C 159.140625 -150.429688 157.003906 -148.125 152.734375 -148.125 L 77.390625 -148.125 C 73.460938 -148.125 71.5 -146.5 71.5 -143.25 L 71.5 -119.15625 C 71.5 -115.738281 73.035156 -114.03125 76.109375 -114.03125 L 123 -114.03125 C 126.425781 -114.03125 128.140625 -112.320312 128.140625 -108.90625 L 128.140625 -77.65625 C 128.140625 -74.75 126.597656 -73.296875 123.515625 -73.296875 L 75.59375 -73.296875 C 74.394531 -73.296875 73.410156 -72.953125 72.640625 -72.265625 C 71.878906 -71.578125 71.5 -70.640625 71.5 -69.453125 L 71.5 -7.4375 C 71.5 -4.695312 70.8125 -2.769531 69.4375 -1.65625 C 68.070312 -0.550781 65.941406 0 63.046875 0 L 20.25 0 C 17.6875 0 15.890625 -0.507812 14.859375 -1.53125 C 13.835938 -2.5625 13.328125 -4.1875 13.328125 -6.40625 Z M 13.328125 -184.25 "/></g></g></g><g fill="#ffdf2b" fill-opacity="1"><g transform="translate(411.599953, 224.17329)"><g><path d="M 7.171875 -184.25 C 7.171875 -185.957031 7.722656 -187.367188 8.828125 -188.484375 C 9.941406 -189.597656 11.523438 -190.15625 13.578125 -190.15625 L 166.828125 -190.15625 C 168.878906 -190.15625 170.457031 -189.597656 171.5625 -188.484375 C 172.675781 -187.367188 173.234375 -185.957031 173.234375 -184.25 L 173.234375 -153.765625 C 173.234375 -150.515625 171.351562 -148.890625 167.59375 -148.890625 L 122.234375 -148.890625 C 120.179688 -148.890625 119.15625 -148.035156 119.15625 -146.328125 L 119.15625 -5.640625 C 119.15625 -3.753906 118.726562 -2.34375 117.875 -1.40625 C 117.019531 -0.46875 115.828125 0 114.296875 0 L 65.609375 0 C 62.523438 0 60.984375 -1.707031 60.984375 -5.125 L 60.984375 -145.296875 C 60.984375 -147.691406 60.046875 -148.890625 58.171875 -148.890625 L 13.0625 -148.890625 C 9.132812 -148.890625 7.171875 -150.515625 7.171875 -153.765625 Z M 7.171875 -184.25 "/></g></g></g><g fill="#ffdf2b" fill-opacity="1"><g transform="translate(1683.621657, 223.844913)"><g><path d="M 36.171875 -4.328125 C 36.171875 -2.734375 35.796875 -1.613281 35.046875 -0.96875 C 34.304688 -0.320312 33.039062 0 31.25 0 L 8.828125 0 C 7.328125 0 6.273438 -0.296875 5.671875 -0.890625 C 5.078125 -1.492188 4.78125 -2.441406 4.78125 -3.734375 L 4.78125 -26.765625 C 4.78125 -27.859375 5.03125 -28.675781 5.53125 -29.21875 C 6.03125 -29.769531 6.726562 -30.046875 7.625 -30.046875 L 33.484375 -30.046875 C 35.273438 -30.046875 36.171875 -29.050781 36.171875 -27.0625 Z M 36.171875 -4.328125 "/></g></g></g><g fill="#ffdf2b" fill-opacity="1"><g transform="translate(1725.330105, 223.844913)"><g><path d="M 11.65625 0 C 10.457031 0 9.507812 -0.375 8.8125 -1.125 C 8.125 -1.875 7.78125 -2.894531 7.78125 -4.1875 L 7.78125 -107.484375 C 7.78125 -108.679688 8.023438 -109.550781 8.515625 -110.09375 C 9.015625 -110.644531 9.8125 -110.921875 10.90625 -110.921875 L 52.78125 -110.921875 C 54.070312 -110.921875 54.988281 -110.742188 55.53125 -110.390625 C 56.082031 -110.046875 56.554688 -109.328125 56.953125 -108.234375 L 72.5 -60.703125 C 72.800781 -59.898438 73.148438 -59.5 73.546875 -59.5 C 73.847656 -59.5 74.148438 -59.898438 74.453125 -60.703125 L 88.359375 -106.59375 C 89.148438 -109.476562 90.492188 -110.921875 92.390625 -110.921875 L 135.59375 -110.921875 C 137.382812 -110.921875 138.28125 -109.878906 138.28125 -107.796875 L 138.28125 -4.328125 C 138.28125 -2.734375 137.90625 -1.613281 137.15625 -0.96875 C 136.414062 -0.320312 135.195312 0 133.5 0 L 108.234375 0 C 106.742188 0 105.722656 -0.296875 105.171875 -0.890625 C 104.617188 -1.492188 104.34375 -2.441406 104.34375 -3.734375 L 104.34375 -70.859375 C 104.34375 -71.660156 104.144531 -72.0625 103.75 -72.0625 C 103.25 -72.0625 102.851562 -71.613281 102.5625 -70.71875 L 81.03125 -2.6875 C 80.332031 -0.894531 79.132812 0 77.4375 0 L 61.75 0 C 59.945312 0 58.75 -0.894531 58.15625 -2.6875 L 36.625 -69.515625 C 36.320312 -70.515625 35.972656 -71.015625 35.578125 -71.015625 C 35.078125 -71.015625 34.828125 -70.46875 34.828125 -69.375 L 34.828125 -3.28125 C 34.828125 -1.988281 34.628906 -1.117188 34.234375 -0.671875 C 33.835938 -0.222656 32.941406 0 31.546875 0 Z M 11.65625 0 "/></g></g></g><g fill="#ffdf2b" fill-opacity="1"><g transform="translate(1871.384434, 223.844913)"><g><path d="M 7.78125 -107.484375 C 7.78125 -109.773438 8.722656 -110.921875 10.609375 -110.921875 L 91.34375 -110.921875 C 93.132812 -110.921875 94.03125 -109.878906 94.03125 -107.796875 L 93.890625 -90.453125 C 93.890625 -87.753906 92.59375 -86.40625 90 -86.40625 L 45.15625 -86.40625 C 42.851562 -86.40625 41.703125 -85.460938 41.703125 -83.578125 L 41.703125 -70.859375 C 41.703125 -69.867188 41.953125 -69.097656 42.453125 -68.546875 C 42.953125 -67.992188 43.601562 -67.71875 44.40625 -67.71875 L 71.3125 -67.71875 C 73.40625 -67.71875 74.453125 -66.722656 74.453125 -64.734375 L 74.453125 -46.203125 C 74.453125 -44.503906 73.554688 -43.65625 71.765625 -43.65625 L 44.109375 -43.65625 C 43.410156 -43.65625 42.832031 -43.453125 42.375 -43.046875 C 41.925781 -42.648438 41.703125 -42.15625 41.703125 -41.5625 L 41.703125 -26.609375 C 41.703125 -25.816406 41.828125 -25.269531 42.078125 -24.96875 C 42.328125 -24.664062 42.800781 -24.515625 43.5 -24.515625 L 92.09375 -24.515625 C 94.28125 -24.515625 95.375 -23.566406 95.375 -21.671875 L 95.375 -3.28125 C 95.375 -2.289062 95.078125 -1.492188 94.484375 -0.890625 C 93.890625 -0.296875 92.992188 0 91.796875 0 L 11.8125 0 C 10.3125 0 9.265625 -0.296875 8.671875 -0.890625 C 8.078125 -1.492188 7.78125 -2.441406 7.78125 -3.734375 Z M 7.78125 -107.484375 "/></g></g></g></svg>