<svg xmlns="http://www.w3.org/2000/svg" width="1125" viewBox="0 0 1125 375" height="375" version="1.0"><g fill="#FD6155" fill-opacity=".302"><g><g><path d="M 60.777344 -185.046875 C 69.191406 -193.460938 78.144531 -198.34375 87.910156 -198.34375 C 106.363281 -198.34375 119.65625 -187.488281 132.679688 -174.464844 L 102.835938 -89.269531 C 91.980469 -96.050781 77.871094 -101.476562 62.136719 -101.476562 C 35.542969 -101.476562 5.425781 -87.910156 -1.898438 -56.164062 C -2.984375 -51.554688 -3.257812 -47.210938 -3.257812 -43.140625 C -3.257812 -11.9375 24.960938 7.324219 57.792969 7.324219 C 82.484375 7.324219 105.546875 -2.984375 121.015625 -24.148438 C 135.121094 -10.851562 152.757812 0 178.265625 0 C 215.164062 0 247.726562 -23.0625 264.003906 -71.902344 C 264.546875 -73.53125 264.820312 -75.160156 264.820312 -76.515625 C 264.820312 -85.199219 256.679688 -90.894531 248.269531 -90.894531 C 241.484375 -90.894531 234.429688 -87.097656 231.175781 -78.414062 C 219.234375 -47.484375 201.871094 -38.527344 182.335938 -38.527344 C 163.613281 -38.527344 152.757812 -51.28125 139.464844 -64.578125 L 167.140625 -145.976562 C 175.824219 -139.464844 186.40625 -132.953125 199.15625 -133.765625 C 226.289062 -133.765625 250.710938 -159.8125 250.710938 -190.472656 C 250.710938 -220.59375 228.460938 -239.042969 205.398438 -239.042969 C 185.046875 -239.042969 164.699219 -231.988281 149.230469 -210.824219 C 135.121094 -224.121094 117.488281 -235.515625 91.710938 -235.515625 C 68.375 -235.515625 50.46875 -228.730469 34.1875 -209.46875 C 31.203125 -205.941406 29.847656 -201.871094 29.847656 -198.070312 C 29.847656 -188.304688 38.257812 -178.808594 47.753906 -178.808594 C 52.09375 -178.808594 56.707031 -180.707031 60.777344 -185.046875 Z M 201.597656 -199.15625 C 208.652344 -199.15625 213.265625 -195.359375 213.265625 -186.949219 C 213.265625 -178.535156 206.753906 -173.652344 199.15625 -173.652344 C 191.289062 -173.652344 185.863281 -179.078125 182.605469 -183.421875 C 187.488281 -194.273438 194.542969 -199.15625 201.597656 -199.15625 Z M 56.707031 -27.132812 C 45.855469 -27.132812 39.613281 -34.730469 39.613281 -43.683594 C 39.613281 -45.582031 39.613281 -47.484375 40.15625 -49.382812 C 43.140625 -59.421875 52.636719 -67.289062 65.121094 -67.289062 C 74.886719 -67.289062 83.027344 -62.675781 90.894531 -55.351562 C 82.214844 -36.085938 69.191406 -27.132812 56.707031 -27.132812 Z M 56.707031 -27.132812" transform="translate(32.362 346.613)"/></g></g></g><g fill="#FD6155" fill-opacity=".302"><g><g><path d="M 114.773438 -56.707031 C 114.773438 -56.4375 114.773438 -60.777344 113.6875 -65.933594 C 115.585938 -67.289062 117.488281 -69.460938 119.113281 -71.902344 C 123.726562 -78.6875 131.867188 -102.292969 131.867188 -113.144531 C 131.867188 -140.820312 109.074219 -159.269531 79.769531 -159.269531 C 54.265625 -159.269531 30.117188 -145.164062 21.433594 -121.015625 L 1.628906 -65.121094 C -0.8125 -58.335938 -1.898438 -51.554688 -1.898438 -45.582031 C -1.898438 -17.09375 22.519531 0 50.195312 0 C 71.359375 0 90.625 -6.785156 102.019531 -26.320312 C 106.90625 -24.960938 112.601562 -24.148438 118.300781 -24.148438 C 150.316406 -24.148438 175.550781 -46.941406 184.777344 -75.429688 C 185.589844 -78.414062 186.132812 -81.128906 186.132812 -83.570312 C 186.132812 -93.609375 178.808594 -99.308594 170.9375 -99.308594 C 163.613281 -99.308594 156.015625 -94.964844 153.03125 -84.925781 C 147.0625 -68.105469 134.582031 -56.4375 118.570312 -56.4375 C 117.488281 -56.4375 115.859375 -56.4375 114.773438 -56.707031 Z M 89.539062 -98.492188 C 88.726562 -96.050781 87.910156 -93.878906 87.640625 -91.710938 C 72.714844 -93.339844 59.421875 -81.128906 59.421875 -64.847656 C 59.691406 -55.621094 64.304688 -50.738281 69.460938 -46.398438 C 65.933594 -36.902344 58.066406 -32.289062 49.652344 -32.289062 C 39.070312 -32.289062 36.359375 -38.800781 36.359375 -45.3125 C 36.359375 -50.46875 37.714844 -55.351562 38.800781 -58.066406 L 58.066406 -113.144531 C 61.320312 -122.097656 70.816406 -127.253906 79.230469 -127.253906 C 87.640625 -127.253906 93.066406 -121.554688 93.066406 -115.316406 C 93.066406 -110.433594 91.4375 -104.191406 89.539062 -98.492188 Z M 89.539062 -98.492188" transform="translate(254.305 346.613)"/></g></g></g><g fill="#FD6155" fill-opacity=".302"><g><g><path d="M 114.773438 -56.707031 C 114.773438 -56.4375 114.773438 -60.777344 113.6875 -65.933594 C 115.585938 -67.289062 117.488281 -69.460938 119.113281 -71.902344 C 123.726562 -78.6875 131.867188 -102.292969 131.867188 -113.144531 C 131.867188 -140.820312 109.074219 -159.269531 79.769531 -159.269531 C 54.265625 -159.269531 30.117188 -145.164062 21.433594 -121.015625 L 1.628906 -65.121094 C -0.8125 -58.335938 -1.898438 -51.554688 -1.898438 -45.582031 C -1.898438 -17.09375 22.519531 0 50.195312 0 C 71.359375 0 90.625 -6.785156 102.019531 -26.320312 C 106.90625 -24.960938 112.601562 -24.148438 118.300781 -24.148438 C 150.316406 -24.148438 175.550781 -46.941406 184.777344 -75.429688 C 185.589844 -78.414062 186.132812 -81.128906 186.132812 -83.570312 C 186.132812 -93.609375 178.808594 -99.308594 170.9375 -99.308594 C 163.613281 -99.308594 156.015625 -94.964844 153.03125 -84.925781 C 147.0625 -68.105469 134.582031 -56.4375 118.570312 -56.4375 C 117.488281 -56.4375 115.859375 -56.4375 114.773438 -56.707031 Z M 89.539062 -98.492188 C 88.726562 -96.050781 87.910156 -93.878906 87.640625 -91.710938 C 72.714844 -93.339844 59.421875 -81.128906 59.421875 -64.847656 C 59.691406 -55.621094 64.304688 -50.738281 69.460938 -46.398438 C 65.933594 -36.902344 58.066406 -32.289062 49.652344 -32.289062 C 39.070312 -32.289062 36.359375 -38.800781 36.359375 -45.3125 C 36.359375 -50.46875 37.714844 -55.351562 38.800781 -58.066406 L 58.066406 -113.144531 C 61.320312 -122.097656 70.816406 -127.253906 79.230469 -127.253906 C 87.640625 -127.253906 93.066406 -121.554688 93.066406 -115.316406 C 93.066406 -110.433594 91.4375 -104.191406 89.539062 -98.492188 Z M 89.539062 -98.492188" transform="translate(395.936 346.613)"/></g></g></g><g fill="#FD6155" fill-opacity=".302"><g><g><path d="M 96.867188 -76.515625 C 86.011719 -46.667969 68.917969 -32.289062 53.179688 -32.289062 C 43.414062 -32.289062 37.445312 -38.257812 37.445312 -45.582031 C 37.445312 -47.484375 37.988281 -49.652344 38.527344 -51.554688 L 65.121094 -127.253906 L 82.757812 -127.253906 C 96.59375 -127.253906 103.917969 -137.023438 103.917969 -145.976562 C 103.917969 -153.03125 99.308594 -159.269531 88.996094 -159.269531 L 76.785156 -159.269531 L 94.964844 -212.179688 C 95.507812 -214.082031 95.78125 -215.707031 95.78125 -217.335938 C 95.78125 -227.375 88.726562 -235.515625 76.785156 -235.515625 C 67.832031 -235.515625 60.234375 -229.273438 56.980469 -219.777344 L 35.273438 -159.269531 L 23.878906 -159.269531 C 9.226562 -159.269531 2.984375 -150.046875 2.984375 -141.363281 C 2.984375 -133.765625 7.597656 -127.253906 14.921875 -127.253906 L 23.878906 -127.253906 L 1.085938 -61.863281 L 1.085938 -62.136719 C -1.085938 -55.621094 -2.171875 -49.652344 -2.171875 -43.957031 C -2.171875 -16.28125 22.519531 0 50.46875 0 C 85.199219 0 114.230469 -25.777344 129.695312 -70.273438 C 130.238281 -72.175781 130.78125 -74.074219 130.78125 -75.703125 C 130.78125 -83.839844 122.914062 -88.996094 114.5 -88.996094 C 107.71875 -88.996094 100.121094 -85.199219 96.867188 -76.515625 Z M 96.867188 -76.515625" transform="translate(537.567 346.613)"/></g></g></g><g fill="#FD6155" fill-opacity=".302"><g><g><path d="M 128.882812 -235.515625 C 121.285156 -235.515625 111.515625 -233.886719 104.734375 -229.003906 C 104.191406 -237.957031 95.238281 -243.925781 85.46875 -243.925781 C 75.703125 -243.925781 65.664062 -238.5 60.777344 -224.933594 L -7.867188 -28.21875 C -8.953125 -24.960938 -9.769531 -21.976562 -9.769531 -19.265625 C -9.769531 -7.324219 0.269531 0 11.125 0 C 20.078125 0 29.574219 -5.425781 33.917969 -18.179688 L 52.09375 -71.632812 C 61.59375 -62.675781 75.429688 -56.980469 90.625 -56.980469 C 117.214844 -56.980469 145.976562 -73.257812 158.1875 -107.71875 L 179.621094 -167.953125 C 182.0625 -174.738281 183.421875 -181.792969 183.421875 -187.761719 C 183.421875 -218.964844 158.730469 -235.515625 128.882812 -235.515625 Z M 134.582031 -166.597656 L 118.027344 -118.027344 C 113.417969 -104.460938 103.105469 -97.40625 92.523438 -97.40625 C 80.585938 -97.40625 70.816406 -106.363281 70.816406 -118.570312 C 70.816406 -120.742188 71.089844 -122.371094 71.902344 -124.542969 L 90.625 -179.621094 C 95.78125 -194.542969 106.90625 -199.699219 117.757812 -199.699219 C 128.609375 -199.699219 136.75 -192.644531 136.75 -179.621094 C 136.75 -176.09375 136.207031 -171.753906 134.582031 -166.597656 Z M 134.582031 -166.597656" transform="translate(626.29 346.613)"/></g></g></g><g fill="#FD6155" fill-opacity=".302"><g><g><path d="M 170.125 -91.710938 C 162.527344 -91.710938 154.117188 -87.097656 150.859375 -76.785156 C 140.277344 -43.414062 123.183594 -32.289062 110.972656 -32.289062 C 106.363281 -32.289062 103.648438 -34.730469 103.648438 -39.070312 C 103.648438 -41.242188 104.191406 -43.957031 105.003906 -46.941406 L 135.394531 -134.851562 C 136.480469 -138.109375 137.023438 -141.09375 137.023438 -143.804688 C 137.023438 -155.746094 127.253906 -161.984375 117.214844 -161.984375 C 109.617188 -161.984375 101.75 -158.457031 97.40625 -151.675781 C 91.710938 -155.203125 81.128906 -159.269531 67.289062 -159.269531 C 49.382812 -159.269531 29.847656 -149.503906 22.519531 -128.609375 L -2.984375 -55.621094 C -4.613281 -50.738281 -5.699219 -45.855469 -5.699219 -40.972656 C -5.699219 -18.449219 12.480469 0 36.359375 0 C 49.109375 0 62.136719 -5.699219 72.175781 -14.652344 C 80.855469 -2.171875 100.121094 0 108.261719 0 C 130.78125 0 160.898438 -11.394531 178.265625 -55.351562 C 182.0625 -65.933594 185.046875 -72.714844 185.046875 -77.601562 C 185.046875 -86.824219 177.992188 -91.710938 170.125 -91.710938 Z M 80.585938 -94.421875 L 67.5625 -53.996094 C 61.863281 -36.359375 51.554688 -32.289062 45.855469 -32.289062 C 39.886719 -32.289062 36.902344 -36.085938 36.902344 -42.328125 C 36.902344 -45.855469 37.714844 -49.109375 38.527344 -51.554688 L 55.894531 -106.089844 C 61.050781 -122.640625 68.648438 -124.8125 72.988281 -124.8125 C 78.144531 -124.8125 83.839844 -119.65625 83.839844 -110.433594 C 83.839844 -106.363281 82.757812 -101.207031 80.585938 -94.421875 Z M 80.585938 -94.421875" transform="translate(783.386 346.613)"/></g></g></g><g fill="#FD6155" fill-opacity=".302"><g><g><path d="M 172.566406 -91.167969 C 165.242188 -91.167969 157.644531 -87.367188 155.203125 -78.6875 C 142.992188 -46.125 128.339844 -32.289062 116.128906 -32.289062 C 110.703125 -32.289062 107.71875 -36.085938 107.71875 -40.429688 C 107.71875 -42.054688 107.988281 -43.683594 109.074219 -46.941406 L 164.425781 -206.753906 C 165.511719 -210.011719 166.867188 -214.625 166.867188 -217.609375 C 166.867188 -229.273438 157.371094 -235.515625 147.875 -235.515625 C 139.464844 -235.515625 131.59375 -229.273438 126.710938 -215.164062 L 102.019531 -145.164062 C 93.878906 -154.117188 81.941406 -159.269531 69.191406 -159.269531 C 51.554688 -159.269531 32.558594 -149.503906 25.234375 -128.882812 L -0.542969 -55.621094 C -2.441406 -50.46875 -3.257812 -45.039062 -3.257812 -40.15625 C -3.257812 -16.28125 16.007812 0 39.34375 0 C 52.09375 0 66.203125 -4.339844 77.058594 -14.921875 C 85.46875 -5.699219 98.492188 0 112.058594 0 C 138.921875 0 169.851562 -19.265625 188.03125 -72.445312 C 188.574219 -74.34375 189.117188 -76.242188 189.117188 -77.871094 C 189.117188 -86.285156 180.976562 -91.167969 172.566406 -91.167969 Z M 45.3125 -41.785156 C 40.15625 -43.140625 38.800781 -47.210938 38.800781 -51.554688 C 38.800781 -55.082031 39.613281 -58.335938 40.429688 -60.777344 L 55.894531 -106.089844 C 61.320312 -122.097656 68.648438 -124.8125 72.988281 -124.8125 C 78.144531 -124.8125 83.839844 -119.65625 83.839844 -110.433594 C 83.839844 -106.363281 83.027344 -101.207031 80.585938 -94.421875 L 69.460938 -63.21875 C 61.320312 -43.140625 50.46875 -40.699219 45.3125 -41.785156 Z M 45.3125 -41.785156" transform="translate(925.831 346.613)"/></g></g></g><g fill="#FD6155" fill-opacity=".502"><g><g><path d="M 60.777344 -185.046875 C 69.191406 -193.460938 78.144531 -198.34375 87.910156 -198.34375 C 106.363281 -198.34375 119.65625 -187.488281 132.679688 -174.464844 L 102.835938 -89.269531 C 91.980469 -96.050781 77.871094 -101.476562 62.136719 -101.476562 C 35.542969 -101.476562 5.425781 -87.910156 -1.898438 -56.164062 C -2.984375 -51.554688 -3.257812 -47.210938 -3.257812 -43.140625 C -3.257812 -11.9375 24.960938 7.324219 57.792969 7.324219 C 82.484375 7.324219 105.546875 -2.984375 121.015625 -24.148438 C 135.121094 -10.851562 152.757812 0 178.265625 0 C 215.164062 0 247.726562 -23.0625 264.003906 -71.902344 C 264.546875 -73.53125 264.820312 -75.160156 264.820312 -76.515625 C 264.820312 -85.199219 256.679688 -90.894531 248.269531 -90.894531 C 241.484375 -90.894531 234.429688 -87.097656 231.175781 -78.414062 C 219.234375 -47.484375 201.871094 -38.527344 182.335938 -38.527344 C 163.613281 -38.527344 152.757812 -51.28125 139.464844 -64.578125 L 167.140625 -145.976562 C 175.824219 -139.464844 186.40625 -132.953125 199.15625 -133.765625 C 226.289062 -133.765625 250.710938 -159.8125 250.710938 -190.472656 C 250.710938 -220.59375 228.460938 -239.042969 205.398438 -239.042969 C 185.046875 -239.042969 164.699219 -231.988281 149.230469 -210.824219 C 135.121094 -224.121094 117.488281 -235.515625 91.710938 -235.515625 C 68.375 -235.515625 50.46875 -228.730469 34.1875 -209.46875 C 31.203125 -205.941406 29.847656 -201.871094 29.847656 -198.070312 C 29.847656 -188.304688 38.257812 -178.808594 47.753906 -178.808594 C 52.09375 -178.808594 56.707031 -180.707031 60.777344 -185.046875 Z M 201.597656 -199.15625 C 208.652344 -199.15625 213.265625 -195.359375 213.265625 -186.949219 C 213.265625 -178.535156 206.753906 -173.652344 199.15625 -173.652344 C 191.289062 -173.652344 185.863281 -179.078125 182.605469 -183.421875 C 187.488281 -194.273438 194.542969 -199.15625 201.597656 -199.15625 Z M 56.707031 -27.132812 C 45.855469 -27.132812 39.613281 -34.730469 39.613281 -43.683594 C 39.613281 -45.582031 39.613281 -47.484375 40.15625 -49.382812 C 43.140625 -59.421875 52.636719 -67.289062 65.121094 -67.289062 C 74.886719 -67.289062 83.027344 -62.675781 90.894531 -55.351562 C 82.214844 -36.085938 69.191406 -27.132812 56.707031 -27.132812 Z M 56.707031 -27.132812" transform="translate(22.297 330.505)"/></g></g></g><g fill="#FD6155" fill-opacity=".502"><g><g><path d="M 114.773438 -56.707031 C 114.773438 -56.4375 114.773438 -60.777344 113.6875 -65.933594 C 115.585938 -67.289062 117.488281 -69.460938 119.113281 -71.902344 C 123.726562 -78.6875 131.867188 -102.292969 131.867188 -113.144531 C 131.867188 -140.820312 109.074219 -159.269531 79.769531 -159.269531 C 54.265625 -159.269531 30.117188 -145.164062 21.433594 -121.015625 L 1.628906 -65.121094 C -0.8125 -58.335938 -1.898438 -51.554688 -1.898438 -45.582031 C -1.898438 -17.09375 22.519531 0 50.195312 0 C 71.359375 0 90.625 -6.785156 102.019531 -26.320312 C 106.90625 -24.960938 112.601562 -24.148438 118.300781 -24.148438 C 150.316406 -24.148438 175.550781 -46.941406 184.777344 -75.429688 C 185.589844 -78.414062 186.132812 -81.128906 186.132812 -83.570312 C 186.132812 -93.609375 178.808594 -99.308594 170.9375 -99.308594 C 163.613281 -99.308594 156.015625 -94.964844 153.03125 -84.925781 C 147.0625 -68.105469 134.582031 -56.4375 118.570312 -56.4375 C 117.488281 -56.4375 115.859375 -56.4375 114.773438 -56.707031 Z M 89.539062 -98.492188 C 88.726562 -96.050781 87.910156 -93.878906 87.640625 -91.710938 C 72.714844 -93.339844 59.421875 -81.128906 59.421875 -64.847656 C 59.691406 -55.621094 64.304688 -50.738281 69.460938 -46.398438 C 65.933594 -36.902344 58.066406 -32.289062 49.652344 -32.289062 C 39.070312 -32.289062 36.359375 -38.800781 36.359375 -45.3125 C 36.359375 -50.46875 37.714844 -55.351562 38.800781 -58.066406 L 58.066406 -113.144531 C 61.320312 -122.097656 70.816406 -127.253906 79.230469 -127.253906 C 87.640625 -127.253906 93.066406 -121.554688 93.066406 -115.316406 C 93.066406 -110.433594 91.4375 -104.191406 89.539062 -98.492188 Z M 89.539062 -98.492188" transform="translate(244.24 330.505)"/></g></g></g><g fill="#FD6155" fill-opacity=".502"><g><g><path d="M 114.773438 -56.707031 C 114.773438 -56.4375 114.773438 -60.777344 113.6875 -65.933594 C 115.585938 -67.289062 117.488281 -69.460938 119.113281 -71.902344 C 123.726562 -78.6875 131.867188 -102.292969 131.867188 -113.144531 C 131.867188 -140.820312 109.074219 -159.269531 79.769531 -159.269531 C 54.265625 -159.269531 30.117188 -145.164062 21.433594 -121.015625 L 1.628906 -65.121094 C -0.8125 -58.335938 -1.898438 -51.554688 -1.898438 -45.582031 C -1.898438 -17.09375 22.519531 0 50.195312 0 C 71.359375 0 90.625 -6.785156 102.019531 -26.320312 C 106.90625 -24.960938 112.601562 -24.148438 118.300781 -24.148438 C 150.316406 -24.148438 175.550781 -46.941406 184.777344 -75.429688 C 185.589844 -78.414062 186.132812 -81.128906 186.132812 -83.570312 C 186.132812 -93.609375 178.808594 -99.308594 170.9375 -99.308594 C 163.613281 -99.308594 156.015625 -94.964844 153.03125 -84.925781 C 147.0625 -68.105469 134.582031 -56.4375 118.570312 -56.4375 C 117.488281 -56.4375 115.859375 -56.4375 114.773438 -56.707031 Z M 89.539062 -98.492188 C 88.726562 -96.050781 87.910156 -93.878906 87.640625 -91.710938 C 72.714844 -93.339844 59.421875 -81.128906 59.421875 -64.847656 C 59.691406 -55.621094 64.304688 -50.738281 69.460938 -46.398438 C 65.933594 -36.902344 58.066406 -32.289062 49.652344 -32.289062 C 39.070312 -32.289062 36.359375 -38.800781 36.359375 -45.3125 C 36.359375 -50.46875 37.714844 -55.351562 38.800781 -58.066406 L 58.066406 -113.144531 C 61.320312 -122.097656 70.816406 -127.253906 79.230469 -127.253906 C 87.640625 -127.253906 93.066406 -121.554688 93.066406 -115.316406 C 93.066406 -110.433594 91.4375 -104.191406 89.539062 -98.492188 Z M 89.539062 -98.492188" transform="translate(385.87 330.505)"/></g></g></g><g fill="#FD6155" fill-opacity=".502"><g><g><path d="M 96.867188 -76.515625 C 86.011719 -46.667969 68.917969 -32.289062 53.179688 -32.289062 C 43.414062 -32.289062 37.445312 -38.257812 37.445312 -45.582031 C 37.445312 -47.484375 37.988281 -49.652344 38.527344 -51.554688 L 65.121094 -127.253906 L 82.757812 -127.253906 C 96.59375 -127.253906 103.917969 -137.023438 103.917969 -145.976562 C 103.917969 -153.03125 99.308594 -159.269531 88.996094 -159.269531 L 76.785156 -159.269531 L 94.964844 -212.179688 C 95.507812 -214.082031 95.78125 -215.707031 95.78125 -217.335938 C 95.78125 -227.375 88.726562 -235.515625 76.785156 -235.515625 C 67.832031 -235.515625 60.234375 -229.273438 56.980469 -219.777344 L 35.273438 -159.269531 L 23.878906 -159.269531 C 9.226562 -159.269531 2.984375 -150.046875 2.984375 -141.363281 C 2.984375 -133.765625 7.597656 -127.253906 14.921875 -127.253906 L 23.878906 -127.253906 L 1.085938 -61.863281 L 1.085938 -62.136719 C -1.085938 -55.621094 -2.171875 -49.652344 -2.171875 -43.957031 C -2.171875 -16.28125 22.519531 0 50.46875 0 C 85.199219 0 114.230469 -25.777344 129.695312 -70.273438 C 130.238281 -72.175781 130.78125 -74.074219 130.78125 -75.703125 C 130.78125 -83.839844 122.914062 -88.996094 114.5 -88.996094 C 107.71875 -88.996094 100.121094 -85.199219 96.867188 -76.515625 Z M 96.867188 -76.515625" transform="translate(527.502 330.505)"/></g></g></g><g fill="#FD6155" fill-opacity=".502"><g><g><path d="M 128.882812 -235.515625 C 121.285156 -235.515625 111.515625 -233.886719 104.734375 -229.003906 C 104.191406 -237.957031 95.238281 -243.925781 85.46875 -243.925781 C 75.703125 -243.925781 65.664062 -238.5 60.777344 -224.933594 L -7.867188 -28.21875 C -8.953125 -24.960938 -9.769531 -21.976562 -9.769531 -19.265625 C -9.769531 -7.324219 0.269531 0 11.125 0 C 20.078125 0 29.574219 -5.425781 33.917969 -18.179688 L 52.09375 -71.632812 C 61.59375 -62.675781 75.429688 -56.980469 90.625 -56.980469 C 117.214844 -56.980469 145.976562 -73.257812 158.1875 -107.71875 L 179.621094 -167.953125 C 182.0625 -174.738281 183.421875 -181.792969 183.421875 -187.761719 C 183.421875 -218.964844 158.730469 -235.515625 128.882812 -235.515625 Z M 134.582031 -166.597656 L 118.027344 -118.027344 C 113.417969 -104.460938 103.105469 -97.40625 92.523438 -97.40625 C 80.585938 -97.40625 70.816406 -106.363281 70.816406 -118.570312 C 70.816406 -120.742188 71.089844 -122.371094 71.902344 -124.542969 L 90.625 -179.621094 C 95.78125 -194.542969 106.90625 -199.699219 117.757812 -199.699219 C 128.609375 -199.699219 136.75 -192.644531 136.75 -179.621094 C 136.75 -176.09375 136.207031 -171.753906 134.582031 -166.597656 Z M 134.582031 -166.597656" transform="translate(616.225 330.505)"/></g></g></g><g fill="#FD6155" fill-opacity=".502"><g><g><path d="M 170.125 -91.710938 C 162.527344 -91.710938 154.117188 -87.097656 150.859375 -76.785156 C 140.277344 -43.414062 123.183594 -32.289062 110.972656 -32.289062 C 106.363281 -32.289062 103.648438 -34.730469 103.648438 -39.070312 C 103.648438 -41.242188 104.191406 -43.957031 105.003906 -46.941406 L 135.394531 -134.851562 C 136.480469 -138.109375 137.023438 -141.09375 137.023438 -143.804688 C 137.023438 -155.746094 127.253906 -161.984375 117.214844 -161.984375 C 109.617188 -161.984375 101.75 -158.457031 97.40625 -151.675781 C 91.710938 -155.203125 81.128906 -159.269531 67.289062 -159.269531 C 49.382812 -159.269531 29.847656 -149.503906 22.519531 -128.609375 L -2.984375 -55.621094 C -4.613281 -50.738281 -5.699219 -45.855469 -5.699219 -40.972656 C -5.699219 -18.449219 12.480469 0 36.359375 0 C 49.109375 0 62.136719 -5.699219 72.175781 -14.652344 C 80.855469 -2.171875 100.121094 0 108.261719 0 C 130.78125 0 160.898438 -11.394531 178.265625 -55.351562 C 182.0625 -65.933594 185.046875 -72.714844 185.046875 -77.601562 C 185.046875 -86.824219 177.992188 -91.710938 170.125 -91.710938 Z M 80.585938 -94.421875 L 67.5625 -53.996094 C 61.863281 -36.359375 51.554688 -32.289062 45.855469 -32.289062 C 39.886719 -32.289062 36.902344 -36.085938 36.902344 -42.328125 C 36.902344 -45.855469 37.714844 -49.109375 38.527344 -51.554688 L 55.894531 -106.089844 C 61.050781 -122.640625 68.648438 -124.8125 72.988281 -124.8125 C 78.144531 -124.8125 83.839844 -119.65625 83.839844 -110.433594 C 83.839844 -106.363281 82.757812 -101.207031 80.585938 -94.421875 Z M 80.585938 -94.421875" transform="translate(773.321 330.505)"/></g></g></g><g fill="#FD6155" fill-opacity=".502"><g><g><path d="M 172.566406 -91.167969 C 165.242188 -91.167969 157.644531 -87.367188 155.203125 -78.6875 C 142.992188 -46.125 128.339844 -32.289062 116.128906 -32.289062 C 110.703125 -32.289062 107.71875 -36.085938 107.71875 -40.429688 C 107.71875 -42.054688 107.988281 -43.683594 109.074219 -46.941406 L 164.425781 -206.753906 C 165.511719 -210.011719 166.867188 -214.625 166.867188 -217.609375 C 166.867188 -229.273438 157.371094 -235.515625 147.875 -235.515625 C 139.464844 -235.515625 131.59375 -229.273438 126.710938 -215.164062 L 102.019531 -145.164062 C 93.878906 -154.117188 81.941406 -159.269531 69.191406 -159.269531 C 51.554688 -159.269531 32.558594 -149.503906 25.234375 -128.882812 L -0.542969 -55.621094 C -2.441406 -50.46875 -3.257812 -45.039062 -3.257812 -40.15625 C -3.257812 -16.28125 16.007812 0 39.34375 0 C 52.09375 0 66.203125 -4.339844 77.058594 -14.921875 C 85.46875 -5.699219 98.492188 0 112.058594 0 C 138.921875 0 169.851562 -19.265625 188.03125 -72.445312 C 188.574219 -74.34375 189.117188 -76.242188 189.117188 -77.871094 C 189.117188 -86.285156 180.976562 -91.167969 172.566406 -91.167969 Z M 45.3125 -41.785156 C 40.15625 -43.140625 38.800781 -47.210938 38.800781 -51.554688 C 38.800781 -55.082031 39.613281 -58.335938 40.429688 -60.777344 L 55.894531 -106.089844 C 61.320312 -122.097656 68.648438 -124.8125 72.988281 -124.8125 C 78.144531 -124.8125 83.839844 -119.65625 83.839844 -110.433594 C 83.839844 -106.363281 83.027344 -101.207031 80.585938 -94.421875 L 69.460938 -63.21875 C 61.320312 -43.140625 50.46875 -40.699219 45.3125 -41.785156 Z M 45.3125 -41.785156" transform="translate(915.766 330.505)"/></g></g></g><g fill="#F6F3E4"><g><g><path d="M 60.777344 -185.046875 C 69.191406 -193.460938 78.144531 -198.34375 87.910156 -198.34375 C 106.363281 -198.34375 119.65625 -187.488281 132.679688 -174.464844 L 102.835938 -89.269531 C 91.980469 -96.050781 77.871094 -101.476562 62.136719 -101.476562 C 35.542969 -101.476562 5.425781 -87.910156 -1.898438 -56.164062 C -2.984375 -51.554688 -3.257812 -47.210938 -3.257812 -43.140625 C -3.257812 -11.9375 24.960938 7.324219 57.792969 7.324219 C 82.484375 7.324219 105.546875 -2.984375 121.015625 -24.148438 C 135.121094 -10.851562 152.757812 0 178.265625 0 C 215.164062 0 247.726562 -23.0625 264.003906 -71.902344 C 264.546875 -73.53125 264.820312 -75.160156 264.820312 -76.515625 C 264.820312 -85.199219 256.679688 -90.894531 248.269531 -90.894531 C 241.484375 -90.894531 234.429688 -87.097656 231.175781 -78.414062 C 219.234375 -47.484375 201.871094 -38.527344 182.335938 -38.527344 C 163.613281 -38.527344 152.757812 -51.28125 139.464844 -64.578125 L 167.140625 -145.976562 C 175.824219 -139.464844 186.40625 -132.953125 199.15625 -133.765625 C 226.289062 -133.765625 250.710938 -159.8125 250.710938 -190.472656 C 250.710938 -220.59375 228.460938 -239.042969 205.398438 -239.042969 C 185.046875 -239.042969 164.699219 -231.988281 149.230469 -210.824219 C 135.121094 -224.121094 117.488281 -235.515625 91.710938 -235.515625 C 68.375 -235.515625 50.46875 -228.730469 34.1875 -209.46875 C 31.203125 -205.941406 29.847656 -201.871094 29.847656 -198.070312 C 29.847656 -188.304688 38.257812 -178.808594 47.753906 -178.808594 C 52.09375 -178.808594 56.707031 -180.707031 60.777344 -185.046875 Z M 201.597656 -199.15625 C 208.652344 -199.15625 213.265625 -195.359375 213.265625 -186.949219 C 213.265625 -178.535156 206.753906 -173.652344 199.15625 -173.652344 C 191.289062 -173.652344 185.863281 -179.078125 182.605469 -183.421875 C 187.488281 -194.273438 194.542969 -199.15625 201.597656 -199.15625 Z M 56.707031 -27.132812 C 45.855469 -27.132812 39.613281 -34.730469 39.613281 -43.683594 C 39.613281 -45.582031 39.613281 -47.484375 40.15625 -49.382812 C 43.140625 -59.421875 52.636719 -67.289062 65.121094 -67.289062 C 74.886719 -67.289062 83.027344 -62.675781 90.894531 -55.351562 C 82.214844 -36.085938 69.191406 -27.132812 56.707031 -27.132812 Z M 56.707031 -27.132812" transform="translate(12.232 314.398)"/></g></g></g><g fill="#F6F3E4"><g><g><path d="M 114.773438 -56.707031 C 114.773438 -56.4375 114.773438 -60.777344 113.6875 -65.933594 C 115.585938 -67.289062 117.488281 -69.460938 119.113281 -71.902344 C 123.726562 -78.6875 131.867188 -102.292969 131.867188 -113.144531 C 131.867188 -140.820312 109.074219 -159.269531 79.769531 -159.269531 C 54.265625 -159.269531 30.117188 -145.164062 21.433594 -121.015625 L 1.628906 -65.121094 C -0.8125 -58.335938 -1.898438 -51.554688 -1.898438 -45.582031 C -1.898438 -17.09375 22.519531 0 50.195312 0 C 71.359375 0 90.625 -6.785156 102.019531 -26.320312 C 106.90625 -24.960938 112.601562 -24.148438 118.300781 -24.148438 C 150.316406 -24.148438 175.550781 -46.941406 184.777344 -75.429688 C 185.589844 -78.414062 186.132812 -81.128906 186.132812 -83.570312 C 186.132812 -93.609375 178.808594 -99.308594 170.9375 -99.308594 C 163.613281 -99.308594 156.015625 -94.964844 153.03125 -84.925781 C 147.0625 -68.105469 134.582031 -56.4375 118.570312 -56.4375 C 117.488281 -56.4375 115.859375 -56.4375 114.773438 -56.707031 Z M 89.539062 -98.492188 C 88.726562 -96.050781 87.910156 -93.878906 87.640625 -91.710938 C 72.714844 -93.339844 59.421875 -81.128906 59.421875 -64.847656 C 59.691406 -55.621094 64.304688 -50.738281 69.460938 -46.398438 C 65.933594 -36.902344 58.066406 -32.289062 49.652344 -32.289062 C 39.070312 -32.289062 36.359375 -38.800781 36.359375 -45.3125 C 36.359375 -50.46875 37.714844 -55.351562 38.800781 -58.066406 L 58.066406 -113.144531 C 61.320312 -122.097656 70.816406 -127.253906 79.230469 -127.253906 C 87.640625 -127.253906 93.066406 -121.554688 93.066406 -115.316406 C 93.066406 -110.433594 91.4375 -104.191406 89.539062 -98.492188 Z M 89.539062 -98.492188" transform="translate(234.174 314.398)"/></g></g></g><g fill="#F6F3E4"><g><g><path d="M 114.773438 -56.707031 C 114.773438 -56.4375 114.773438 -60.777344 113.6875 -65.933594 C 115.585938 -67.289062 117.488281 -69.460938 119.113281 -71.902344 C 123.726562 -78.6875 131.867188 -102.292969 131.867188 -113.144531 C 131.867188 -140.820312 109.074219 -159.269531 79.769531 -159.269531 C 54.265625 -159.269531 30.117188 -145.164062 21.433594 -121.015625 L 1.628906 -65.121094 C -0.8125 -58.335938 -1.898438 -51.554688 -1.898438 -45.582031 C -1.898438 -17.09375 22.519531 0 50.195312 0 C 71.359375 0 90.625 -6.785156 102.019531 -26.320312 C 106.90625 -24.960938 112.601562 -24.148438 118.300781 -24.148438 C 150.316406 -24.148438 175.550781 -46.941406 184.777344 -75.429688 C 185.589844 -78.414062 186.132812 -81.128906 186.132812 -83.570312 C 186.132812 -93.609375 178.808594 -99.308594 170.9375 -99.308594 C 163.613281 -99.308594 156.015625 -94.964844 153.03125 -84.925781 C 147.0625 -68.105469 134.582031 -56.4375 118.570312 -56.4375 C 117.488281 -56.4375 115.859375 -56.4375 114.773438 -56.707031 Z M 89.539062 -98.492188 C 88.726562 -96.050781 87.910156 -93.878906 87.640625 -91.710938 C 72.714844 -93.339844 59.421875 -81.128906 59.421875 -64.847656 C 59.691406 -55.621094 64.304688 -50.738281 69.460938 -46.398438 C 65.933594 -36.902344 58.066406 -32.289062 49.652344 -32.289062 C 39.070312 -32.289062 36.359375 -38.800781 36.359375 -45.3125 C 36.359375 -50.46875 37.714844 -55.351562 38.800781 -58.066406 L 58.066406 -113.144531 C 61.320312 -122.097656 70.816406 -127.253906 79.230469 -127.253906 C 87.640625 -127.253906 93.066406 -121.554688 93.066406 -115.316406 C 93.066406 -110.433594 91.4375 -104.191406 89.539062 -98.492188 Z M 89.539062 -98.492188" transform="translate(375.806 314.398)"/></g></g></g><g fill="#F6F3E4"><g><g><path d="M 96.867188 -76.515625 C 86.011719 -46.667969 68.917969 -32.289062 53.179688 -32.289062 C 43.414062 -32.289062 37.445312 -38.257812 37.445312 -45.582031 C 37.445312 -47.484375 37.988281 -49.652344 38.527344 -51.554688 L 65.121094 -127.253906 L 82.757812 -127.253906 C 96.59375 -127.253906 103.917969 -137.023438 103.917969 -145.976562 C 103.917969 -153.03125 99.308594 -159.269531 88.996094 -159.269531 L 76.785156 -159.269531 L 94.964844 -212.179688 C 95.507812 -214.082031 95.78125 -215.707031 95.78125 -217.335938 C 95.78125 -227.375 88.726562 -235.515625 76.785156 -235.515625 C 67.832031 -235.515625 60.234375 -229.273438 56.980469 -219.777344 L 35.273438 -159.269531 L 23.878906 -159.269531 C 9.226562 -159.269531 2.984375 -150.046875 2.984375 -141.363281 C 2.984375 -133.765625 7.597656 -127.253906 14.921875 -127.253906 L 23.878906 -127.253906 L 1.085938 -61.863281 L 1.085938 -62.136719 C -1.085938 -55.621094 -2.171875 -49.652344 -2.171875 -43.957031 C -2.171875 -16.28125 22.519531 0 50.46875 0 C 85.199219 0 114.230469 -25.777344 129.695312 -70.273438 C 130.238281 -72.175781 130.78125 -74.074219 130.78125 -75.703125 C 130.78125 -83.839844 122.914062 -88.996094 114.5 -88.996094 C 107.71875 -88.996094 100.121094 -85.199219 96.867188 -76.515625 Z M 96.867188 -76.515625" transform="translate(517.437 314.398)"/></g></g></g><g fill="#F6F3E4"><g><g><path d="M 128.882812 -235.515625 C 121.285156 -235.515625 111.515625 -233.886719 104.734375 -229.003906 C 104.191406 -237.957031 95.238281 -243.925781 85.46875 -243.925781 C 75.703125 -243.925781 65.664062 -238.5 60.777344 -224.933594 L -7.867188 -28.21875 C -8.953125 -24.960938 -9.769531 -21.976562 -9.769531 -19.265625 C -9.769531 -7.324219 0.269531 0 11.125 0 C 20.078125 0 29.574219 -5.425781 33.917969 -18.179688 L 52.09375 -71.632812 C 61.59375 -62.675781 75.429688 -56.980469 90.625 -56.980469 C 117.214844 -56.980469 145.976562 -73.257812 158.1875 -107.71875 L 179.621094 -167.953125 C 182.0625 -174.738281 183.421875 -181.792969 183.421875 -187.761719 C 183.421875 -218.964844 158.730469 -235.515625 128.882812 -235.515625 Z M 134.582031 -166.597656 L 118.027344 -118.027344 C 113.417969 -104.460938 103.105469 -97.40625 92.523438 -97.40625 C 80.585938 -97.40625 70.816406 -106.363281 70.816406 -118.570312 C 70.816406 -120.742188 71.089844 -122.371094 71.902344 -124.542969 L 90.625 -179.621094 C 95.78125 -194.542969 106.90625 -199.699219 117.757812 -199.699219 C 128.609375 -199.699219 136.75 -192.644531 136.75 -179.621094 C 136.75 -176.09375 136.207031 -171.753906 134.582031 -166.597656 Z M 134.582031 -166.597656" transform="translate(606.16 314.398)"/></g></g></g><g fill="#F6F3E4"><g><g><path d="M 170.125 -91.710938 C 162.527344 -91.710938 154.117188 -87.097656 150.859375 -76.785156 C 140.277344 -43.414062 123.183594 -32.289062 110.972656 -32.289062 C 106.363281 -32.289062 103.648438 -34.730469 103.648438 -39.070312 C 103.648438 -41.242188 104.191406 -43.957031 105.003906 -46.941406 L 135.394531 -134.851562 C 136.480469 -138.109375 137.023438 -141.09375 137.023438 -143.804688 C 137.023438 -155.746094 127.253906 -161.984375 117.214844 -161.984375 C 109.617188 -161.984375 101.75 -158.457031 97.40625 -151.675781 C 91.710938 -155.203125 81.128906 -159.269531 67.289062 -159.269531 C 49.382812 -159.269531 29.847656 -149.503906 22.519531 -128.609375 L -2.984375 -55.621094 C -4.613281 -50.738281 -5.699219 -45.855469 -5.699219 -40.972656 C -5.699219 -18.449219 12.480469 0 36.359375 0 C 49.109375 0 62.136719 -5.699219 72.175781 -14.652344 C 80.855469 -2.171875 100.121094 0 108.261719 0 C 130.78125 0 160.898438 -11.394531 178.265625 -55.351562 C 182.0625 -65.933594 185.046875 -72.714844 185.046875 -77.601562 C 185.046875 -86.824219 177.992188 -91.710938 170.125 -91.710938 Z M 80.585938 -94.421875 L 67.5625 -53.996094 C 61.863281 -36.359375 51.554688 -32.289062 45.855469 -32.289062 C 39.886719 -32.289062 36.902344 -36.085938 36.902344 -42.328125 C 36.902344 -45.855469 37.714844 -49.109375 38.527344 -51.554688 L 55.894531 -106.089844 C 61.050781 -122.640625 68.648438 -124.8125 72.988281 -124.8125 C 78.144531 -124.8125 83.839844 -119.65625 83.839844 -110.433594 C 83.839844 -106.363281 82.757812 -101.207031 80.585938 -94.421875 Z M 80.585938 -94.421875" transform="translate(763.256 314.398)"/></g></g></g><g fill="#F6F3E4"><g><g><path d="M 172.566406 -91.167969 C 165.242188 -91.167969 157.644531 -87.367188 155.203125 -78.6875 C 142.992188 -46.125 128.339844 -32.289062 116.128906 -32.289062 C 110.703125 -32.289062 107.71875 -36.085938 107.71875 -40.429688 C 107.71875 -42.054688 107.988281 -43.683594 109.074219 -46.941406 L 164.425781 -206.753906 C 165.511719 -210.011719 166.867188 -214.625 166.867188 -217.609375 C 166.867188 -229.273438 157.371094 -235.515625 147.875 -235.515625 C 139.464844 -235.515625 131.59375 -229.273438 126.710938 -215.164062 L 102.019531 -145.164062 C 93.878906 -154.117188 81.941406 -159.269531 69.191406 -159.269531 C 51.554688 -159.269531 32.558594 -149.503906 25.234375 -128.882812 L -0.542969 -55.621094 C -2.441406 -50.46875 -3.257812 -45.039062 -3.257812 -40.15625 C -3.257812 -16.28125 16.007812 0 39.34375 0 C 52.09375 0 66.203125 -4.339844 77.058594 -14.921875 C 85.46875 -5.699219 98.492188 0 112.058594 0 C 138.921875 0 169.851562 -19.265625 188.03125 -72.445312 C 188.574219 -74.34375 189.117188 -76.242188 189.117188 -77.871094 C 189.117188 -86.285156 180.976562 -91.167969 172.566406 -91.167969 Z M 45.3125 -41.785156 C 40.15625 -43.140625 38.800781 -47.210938 38.800781 -51.554688 C 38.800781 -55.082031 39.613281 -58.335938 40.429688 -60.777344 L 55.894531 -106.089844 C 61.320312 -122.097656 68.648438 -124.8125 72.988281 -124.8125 C 78.144531 -124.8125 83.839844 -119.65625 83.839844 -110.433594 C 83.839844 -106.363281 83.027344 -101.207031 80.585938 -94.421875 L 69.460938 -63.21875 C 61.320312 -43.140625 50.46875 -40.699219 45.3125 -41.785156 Z M 45.3125 -41.785156" transform="translate(905.7 314.398)"/></g></g></g></svg>